<?xml version="1.0" encoding="UTF-8" standalone="no"?>
<!-- Created with Inkscape (http://www.inkscape.org/) -->
<svg
   xmlns:dc="http://purl.org/dc/elements/1.1/"
   xmlns:cc="http://creativecommons.org/ns#"
   xmlns:rdf="http://www.w3.org/1999/02/22-rdf-syntax-ns#"
   xmlns:svg="http://www.w3.org/2000/svg"
   xmlns="http://www.w3.org/2000/svg"
   xmlns:xlink="http://www.w3.org/1999/xlink"
   xmlns:sodipodi="http://sodipodi.sourceforge.net/DTD/sodipodi-0.dtd"
   xmlns:inkscape="http://www.inkscape.org/namespaces/inkscape"
   width="128"
   height="128"
   id="svg2383"
   sodipodi:version="0.32"
   inkscape:version="0.46"
   version="1.0"
   sodipodi:docname="hair.svg"
   inkscape:output_extension="org.inkscape.output.svg.inkscape"
   inkscape:export-filename="C:\Documents and Settings\mflerackers\My Documents\My Projects\google\makehuman\trunk\makehuman\data\images\button_library.png"
   inkscape:export-xdpi="90"
   inkscape:export-ydpi="90">
  <defs
     id="defs2385">
    <linearGradient
       id="linearGradient3283">
      <stop
         style="stop-color:#999595;stop-opacity:1;"
         offset="0"
         id="stop3285" />
      <stop
         style="stop-color:#fefefe;stop-opacity:1;"
         offset="1"
         id="stop3287" />
    </linearGradient>
    <linearGradient
       id="linearGradient3273">
      <stop
         style="stop-color:#ffffff;stop-opacity:1;"
         offset="0"
         id="stop3275" />
      <stop
         style="stop-color:#999595;stop-opacity:1;"
         offset="1"
         id="stop3277" />
    </linearGradient>
    <inkscape:perspective
       sodipodi:type="inkscape:persp3d"
       inkscape:vp_x="0 : 32 : 1"
       inkscape:vp_y="0 : 1000 : 0"
       inkscape:vp_z="64 : 32 : 1"
       inkscape:persp3d-origin="32 : 21.333333 : 1"
       id="perspective2391" />
    <radialGradient
       inkscape:collect="always"
       xlink:href="#linearGradient3273"
       id="radialGradient3281"
       cx="53.212753"
       cy="35.503601"
       fx="53.212753"
       fy="35.503601"
       r="51.500587"
       gradientTransform="matrix(0.8486449,-0.3426849,0.3211407,0.7952919,-7.5988788,24.560938)"
       gradientUnits="userSpaceOnUse" />
    <linearGradient
       inkscape:collect="always"
       xlink:href="#linearGradient3283"
       id="linearGradient3289"
       x1="71.36136"
       y1="71.289204"
       x2="103.16132"
       y2="106.4892"
       gradientUnits="userSpaceOnUse" />
  </defs>
  <sodipodi:namedview
     id="base"
     pagecolor="#ffffff"
     bordercolor="#666666"
     borderopacity="1.0"
     inkscape:pageopacity="0.0"
     inkscape:pageshadow="2"
     inkscape:zoom="7.5"
     inkscape:cx="64"
     inkscape:cy="57.99873"
     inkscape:current-layer="layer1"
     showgrid="true"
     inkscape:document-units="px"
     inkscape:grid-bbox="true"
     inkscape:window-width="1537"
     inkscape:window-height="1180"
     inkscape:window-x="-4"
     inkscape:window-y="-4" />
  <metadata
     id="metadata2388">
    <rdf:RDF>
      <cc:Work
         rdf:about="">
        <dc:format>image/svg+xml</dc:format>
        <dc:type
           rdf:resource="http://purl.org/dc/dcmitype/StillImage" />
      </cc:Work>
    </rdf:RDF>
  </metadata>
  <g
     id="layer1"
     inkscape:label="Layer 1"
     inkscape:groupmode="layer">
    <path
       style="fill:url(#radialGradient3281);fill-rule:evenodd;stroke:#000000;stroke-width:4;stroke-linecap:butt;stroke-linejoin:miter;stroke-opacity:1;stroke-miterlimit:4;stroke-dasharray:none;fill-opacity:1"
       d="M 65.46875,11.96875 C 63.339856,12.221855 61.24667,12.698428 59.125,13 C 58.136478,13.27273 57.194225,13.68354 56.215607,13.990223 C 55.053051,14.46925 53.802901,14.65981 52.5625,14.8125 C 51.448198,15.114705 50.352025,15.485783 49.269474,15.884511 C 48.036739,16.458862 46.934915,17.270764 45.8125,18.03125 C 44.920159,18.775371 44.189813,19.679112 43.460448,20.576756 C 41.846465,22.479454 40.431411,24.541787 39.0625,26.625 C 38.469634,27.589097 37.990636,28.62133 37.666531,29.706498 C 36.978517,31.670879 36.398063,33.689769 36.206005,35.769207 C 35.935336,38.158897 35.775864,40.560349 35.607758,42.958957 C 35.364491,47.944825 35.152383,52.932391 34.891887,57.917304 C 34.742263,60.138502 34.635151,62.363176 34.462379,64.582423 C 34.279589,66.8291 33.58007,68.987552 32.917902,71.12885 C 32.053789,73.922122 30.900895,76.613226 29.732147,79.2892 C 29.095768,80.555113 28.531933,81.859504 27.788847,83.06829 C 27.267678,84.009376 26.625899,84.879254 25.973796,85.731697 C 24.697795,87.201155 23.344838,88.611413 21.826754,89.833882 C 20.933872,90.589572 19.985399,91.276479 19,91.90625 C 17.737042,92.589122 16.339817,92.95775 14.979462,93.390273 C 14.016421,93.622236 13.055074,94.008307 12.045767,93.884331 C 11.18703,93.877413 10.188078,93.631027 9.441645,94.163903 C 8.52413,94.81922 9.001399,96.052908 9.584666,96.768273 C 10.602761,97.944042 11.553533,99.176875 12.560244,100.36294 C 13.953166,102.0062 15.31015,103.71307 17.03125,105.03125 C 17.931015,105.60596 18.785036,106.25267 19.75,106.71875 C 21.699627,107.81537 23.779408,108.65219 25.79797,109.60988 C 28.17448,110.70255 30.58846,111.71355 33.010968,112.69919 C 35.380627,113.59803 37.689597,114.67551 40.143072,115.3363 C 41.715197,115.84564 43.367814,116.01908 44.994102,116.27095 C 49.223677,116.77183 53.481374,116.9655 57.727824,117.26935 C 60.786163,117.44936 59.575323,117.56431 66.90625,117.75 C 71.883845,117.0362 71.511157,117.19402 73.757126,116.62041 C 77.476327,115.75557 81.126369,114.62679 84.795265,113.57492 C 86.563877,113.04225 88.348092,112.55464 90.107232,111.99461 C 91.094386,111.69451 91.851902,110.48372 91.268104,109.52108 C 90.94424,108.659 90.26277,108.00963 89.802867,107.22423 C 89.023064,106.07668 88.1961,104.96225 87.453444,103.78954 C 86.807271,102.90514 86.482354,101.84824 86,100.875 C 85.322395,99.394804 84.707396,97.888513 84.126687,96.36793 C 82.52864,92.263039 80.957459,88.146633 79.482015,83.995918 C 78.538714,81.24456 77.643829,78.476373 76.734524,75.713583 C 75.748527,72.519319 74.701101,69.341021 73.863908,66.103414 C 73.525836,64.725468 73.2568,63.32884 73.05526,61.924781 C 72.797437,59.993128 72.603301,58.05447 72.466636,56.110554 C 72.189785,52.934357 71.988045,49.751895 71.887356,46.565084 C 71.843702,45.535464 72.082338,44.51862 72.303012,43.519228 C 72.554481,42.439891 72.782709,41.352404 73.233039,40.334008 C 73.619627,39.33383 74.021225,38.31173 74.62145,37.425868 C 75.410181,36.489594 76.533625,35.91624 77.6875,35.5625 C 79.427617,34.970075 81.222601,34.564668 83.002971,34.114551 C 84.115339,33.881475 85.239234,33.689246 86.362925,33.518241 C 88.087072,33.297851 89.842184,33.178321 91.56997,33.429188 C 92.985547,33.631929 94.39761,33.871544 95.80313,34.134856 C 97.56248,34.470853 99.18306,35.257651 100.8125,35.96875 C 101.97372,36.634377 103.18504,37.27382 104.09375,38.28125 C 105.26167,39.410621 106.22645,40.744177 106.96254,42.191735 C 107.22149,42.571169 107.42356,43.235061 107.8125,43.40625 C 108.00446,42.516229 107.94289,41.561845 107.74332,40.664922 C 107.51328,39.571505 107.32502,38.470102 106.99998,37.398946 C 106.4412,35.2495 105.40211,33.260618 104.25,31.375 C 103.17991,29.800877 102.13293,28.202929 100.8543,26.786209 C 100.1706,25.898628 99.22114,25.281156 98.375,24.5625 C 95.85917,22.645723 93.34788,20.71756 90.693558,18.993622 C 89.456952,18.263491 88.090073,17.793024 86.783785,17.204984 C 84.508157,16.243628 82.248358,15.241015 79.922919,14.403672 C 78.676491,13.921188 77.346686,13.703856 76.03125,13.5 C 74.141687,13.314403 72.261712,13.018164 70.423071,12.539346 C 68.972491,12.189655 67.493512,11.947304 66,11.90625 C 65.822917,11.927083 65.645833,11.947917 65.46875,11.96875 z"
       id="path3249"
       sodipodi:nodetypes="ccccccccscccccccccccccccccccccccccccccccccccccccsscccccccccccccccccccc" />
    <path
       style="fill:url(#linearGradient3289);fill-rule:evenodd;stroke:#000000;stroke-width:1.98097932000000010;stroke-linecap:butt;stroke-linejoin:round;stroke-miterlimit:4;stroke-dasharray:none;stroke-opacity:1;fill-opacity:1"
       d="M 107.78125,44.375 C 106.30064,48.533214 110.6867,29.091429 81.73942,34.849643 C 75.972017,35.996899 69.661057,39.129048 73.555208,66.802083 C 74.279299,71.947696 78.46912,78.192575 80.726076,88.28782 C 81.838368,93.263042 84.372581,96.959829 87.0625,102.5625 C 87.520537,103.34517 88.430061,103.64115 89.125,104.15625 C 89.854603,104.85289 90.881204,105.1387 91.77246,105.58404 C 92.661313,106.05853 93.684511,106.07961 94.606084,106.46263 C 95.672668,106.82745 96.724512,107.23301 97.78125,107.625 C 100.79737,108.15392 103.82177,108.72696 106.8917,108.80408 C 108.27268,108.79268 109.61215,108.38384 110.98131,108.24157 C 111.96748,108.26479 112.9178,108.03924 113.80923,107.61677 C 114.71393,107.23703 115.61617,106.82105 116.4375,106.28125 C 115.77736,105.50434 115.00664,104.836 114.19077,104.22752 C 113.39359,103.67608 112.70595,102.997 112,102.34375 C 111.31832,101.85911 110.43132,101.50276 110.125,100.65625 C 109.3833,99.50797 108.57567,98.402347 107.84439,97.248242 C 107.24557,96.366265 106.93069,95.340404 106.4276,94.406183 C 105.79557,93.096061 105.11187,91.791857 104.75,90.375 C 104.61427,89.022542 104.47543,87.667872 104.15625,86.34375 C 103.74455,84.337974 103.37557,82.312198 103.33233,80.259564 C 103.24673,78.381231 103.31359,76.495794 103.09375,74.625 C 103.28876,72.454606 103.26074,70.269681 103.46017,68.099855 C 103.68048,66.402029 104.01616,64.714734 104.125,63.004693 C 104.22216,62.073035 104.86292,61.28777 104.90479,60.333726 C 105.14272,59.380972 105.51813,58.463453 105.96875,57.59375 C 106.2469,56.689292 106.09671,55.716895 106.375,54.8125 C 106.40868,53.783363 106.80925,52.818651 107.125,51.879693 C 107.12527,50.892496 107.5631,49.972536 107.79655,49.026029 C 108.06073,48.012991 108.60831,46.991707 108.38191,45.919887 C 108.22406,45.116922 107.74766,44.378371 107.84375,43.53125 C 107.82292,43.8125 107.80208,44.09375 107.78125,44.375 z"
       id="path3251"
       sodipodi:nodetypes="csssccccccccccccccccccscccccccsc" />
  </g>
</svg>
